<?xml version="1.0" encoding="utf-8"?><!-- Uploaded to: SVG Repo, www.svgrepo.com, Generator: SVG Repo Mixer Tools -->
<svg width="800px" height="800px" viewBox="0 0 24 24" fill="none" xmlns="http://www.w3.org/2000/svg">
<path d="M18 16.3741C16.1233 16.7794 14.1038 17 12 17C9.89619 17 7.87667 16.7794 6 16.3741M16 20.667C14.7104 20.8852 13.3722 21 12 21C10.6278 21 9.28964 20.8852 8 20.667M19 12.0635C16.9408 12.6591 14.55 13 12 13C9.44999 13 7.05921 12.6591 5 12.0635M21 6C21 7.65685 16.9706 9 12 9C7.02944 9 3 7.65685 3 6C3 4.34315 7.02944 3 12 3C16.9706 3 21 4.34315 21 6Z" stroke="#000000" stroke-width="2" stroke-linecap="round"/>
</svg>