<?xml version="1.0" encoding="utf-8"?><!-- Uploaded to: SVG Repo, www.svgrepo.com, Generator: SVG Repo Mixer Tools -->
<svg width="800px" height="800px" viewBox="0 0 24 24" fill="none" xmlns="http://www.w3.org/2000/svg">
<path d="M11.6543 5.61803C13.2815 3.99994 15.5241 3 18.0002 3C18.9834 3 19.9292 3.15635 20.8148 3.44775C17.9284 5.20162 16.0002 8.37566 16.0002 12C16.0002 15.6235 17.9277 18.7976 20.813 20.5517C19.928 20.8426 18.9825 21 18.0002 21C16.15 21 14.4301 20.4417 13 19.4843M5.7 16C4.20883 16 3 14.8022 3 13.3246C3 12.1 3.9 10.9688 5.25 10.75C5.67347 9.74319 6.6757 9 7.84463 9C9.34202 9 10.5659 10.1613 10.65 11.625C11.4447 11.9724 12 12.8252 12 13.7484C12 14.9919 10.9926 16 9.75 16L5.7 16Z" stroke="#000000" stroke-width="2" stroke-linecap="round" stroke-linejoin="round"/>
</svg>