<?xml version="1.0" encoding="utf-8"?><!-- Uploaded to: SVG Repo, www.svgrepo.com, Generator: SVG Repo Mixer Tools -->
<svg width="800px" height="800px" viewBox="0 0 24 24" fill="none" xmlns="http://www.w3.org/2000/svg">
<path d="M6.76467 6V16.8354M5.68131 6.54173L6.76485 7.62527L7.84821 6.54173M5.68131 16.2936L6.76485 15.21L7.84821 16.2936M2.07278 8.70887L11.4565 14.1266M2.00033 9.91812L3.48047 9.52152L3.08378 8.04134M10.4451 14.794L10.0485 13.3139L11.529 12.9173M11.4561 8.70887L2.07242 14.1266M10.4456 8.04136L10.049 9.52149L11.5291 9.91808M2 12.9172L3.48014 13.3138L3.08387 14.794M14.9998 10H19.4998C20.8805 10 21.9998 8.88071 21.9998 7.5C21.9998 6.11929 20.8805 5 19.4998 5H18.4998M14.9998 14H19.4998C20.8805 14 21.9998 15.1193 21.9998 16.5C21.9998 17.8807 20.8805 19 19.4998 19H18.4998" stroke="#000000" stroke-width="2" stroke-linecap="round" stroke-linejoin="round"/>
</svg>