<?xml version="1.0" encoding="utf-8"?><!-- Uploaded to: SVG Repo, www.svgrepo.com, Generator: SVG Repo Mixer Tools -->
<svg width="800px" height="800px" viewBox="0 0 24 24" fill="none" xmlns="http://www.w3.org/2000/svg">
<path d="M20.9997 21L21.0068 21.007M20.9997 16L21.0068 16.007M20.9997 11L21.0068 11.007M18.4997 13.5L18.5068 13.507M13.4997 18.5L13.5068 18.507M18.4997 18.5L18.5068 18.507M15.9997 16L16.0068 16.007M10.9997 21L11.0068 21.007M15.9997 21L16.0068 21.007M16.4491 9.5509C16.4476 9.48611 16.4524 9.42086 16.4637 9.35606C16.4906 9.20195 16.5729 9.04504 16.7374 8.73121C17.2702 7.71526 17.5366 7.20728 17.528 6.85227C17.5131 6.23804 17.0911 5.70886 16.4956 5.55764C16.1514 5.47025 15.5969 5.61692 14.4878 5.91028C14.1452 6.00089 13.9739 6.0462 13.8177 6.03811C13.5499 6.02423 13.2988 5.90333 13.1209 5.70255C13.0172 5.58546 12.9458 5.42329 12.8031 5.09895C12.341 4.04897 12.1099 3.52398 11.827 3.30937C11.3375 2.93806 10.6606 2.93806 10.1711 3.30937C9.88815 3.52398 9.65709 4.04897 9.19497 5.09895C9.05222 5.42329 8.98084 5.58546 8.87711 5.70255C8.69925 5.90333 8.44819 6.02423 8.18032 6.03811C8.0241 6.0462 7.85281 6.00089 7.51023 5.91028C6.40119 5.61692 5.84667 5.47025 5.50248 5.55764C4.90697 5.70886 4.48496 6.23804 4.47005 6.85227C4.46144 7.20728 4.72783 7.71526 5.26061 8.73121C5.42519 9.04504 5.50747 9.20195 5.53435 9.35606C5.58042 9.6203 5.51841 9.89197 5.36225 10.11C5.27118 10.2372 5.12896 10.3429 4.84451 10.5542C3.92369 11.2384 3.46327 11.5805 3.317 11.9041C3.06393 12.464 3.21454 13.1239 3.68547 13.5185C3.95766 13.7466 4.5209 13.855 5.64739 14.0719C5.99537 14.1389 6.16935 14.1724 6.30659 14.2475C6.54191 14.3762 6.71565 14.5941 6.78878 14.8521C6.83144 15.0026 6.82538 15.1797 6.81327 15.5339C6.77405 16.6804 6.75445 17.2536 6.91624 17.5697C7.09068 17.9106 7.39322 18.153 7.74217 18.2578M12.9997 11C12.9997 12.1045 12.1043 13 10.9997 13C9.89517 13 8.99974 12.1045 8.99974 11C8.99974 9.8954 9.89517 8.99997 10.9997 8.99997C12.1043 8.99997 12.9997 9.8954 12.9997 11Z" stroke="#000000" stroke-width="2" stroke-linecap="round"/>
</svg>